# xmcd CD database file
#
# Track frame offsets:
#	150
#	13717
#	28498
#	41693
#	56671
#	72090
#	86766
#	100170
#	113915
#	124140
#	136969
#	150641
#	163415
#	175792
#	190603
#	205020
#	218308
#	231648
#	245818
#	259300
#	273695
#	285288
#
# Disc length: 3966 seconds
#
# Revision: 4
# Processed by: cddbd v1.5.2PL0 Copyright (c) Steve Scherf et al.
# Submitted via: CDex 1.73
#
DISCID=470f7c16
DTITLE=Various Artist - Jazz in the Charts - CD003 (1923-1925)
DYEAR=1923
DGENRE=Jazz
TTITLE0=Who's Sorry Now - Original Memphis Five
TTITLE1=Aggravatin' Papa - Bessie Smith and Her Down Home Boys
TTITLE2=Baby Won't You Please Come Home Blues - Bessie Smith - Clarence Williams
TTITLE3=Down Hearted Blues - Noble Sissle - Eubie Blake
TTITLE4=Tain't Nobody's Bizness If I Do - Bessie Smith - Clarence Williams
TTITLE5=Georgia Blues - Ethel Waters - Joe Smith's Jazz Masters
TTITLE6=St. Louis Blues - W. C. Handy's Orchestra
TTITLE7=Gulf Coast Blues - Fletcher Henderson and His Orchestra
TTITLE8=Dipper Mouth Blues - King Oliver's Jazz Band
TTITLE9=High Society Rag - King Oliver's Jazz Band
TTITLE10=Moonlight Kisses - California Ramblers
TTITLE11=Tain't Nobody's Bizness If I Do - Clarence Williams' Blue Five
TTITLE12=Charleston Crazy - Fletcher Henderson and His Orchestr
TTITLE13=Roamin' to Wyomin - California Ramblers
TTITLE14=California, Here I Come - California Ramblers
TTITLE15=Chicago Blues - Clara Smith and Her Jazz Band
TTITLE16=Where the Lazy Daisies Grow - Jean Goldkette and His Orchestra
TTITLE17=Shine - California Ramblers
TTITLE18=Night Hawk Blues - Coon-Sanders' Original Nighthawk Orchestra
TTITLE19=See See Rider Blues - Ma Rainey and Her Georgia Band
TTITLE20=Everybody Loves My Baby - Clarence Williams' Blue Five
TTITLE21=South - Bennie Moten's Kansas City Orchestra
EXTD=YEAR: 1923
EXTT0=
EXTT1=
EXTT2=
EXTT3=
EXTT4=
EXTT5=
EXTT6=
EXTT7=
EXTT8=
EXTT9=
EXTT10=
EXTT11=
EXTT12=
EXTT13=
EXTT14=
EXTT15=
EXTT16=
EXTT17=
EXTT18=
EXTT19=
EXTT20=
EXTT21=
PLAYORDER=
